<svg width="40" height="40" viewBox="0 0 40 40" fill="none" xmlns="http://www.w3.org/2000/svg">
<path d="M35.4194 0.0157976L35.6221 0.0379161L35.8185 0.0663557L36.0149 0.101114L36.2082 0.145351L36.3982 0.195907L36.5883 0.252783L36.772 0.319139L36.9526 0.391815L37.13 0.470811L37.3042 0.556124L37.4721 0.647759L37.6369 0.745712L37.7984 0.849987L37.9568 0.960579L38.1089 1.07749L38.2577 1.19756L38.4003 1.32712L38.5397 1.45667L38.6696 1.5957L38.7994 1.73789L38.9198 1.8864L39.037 2.03807L39.1479 2.19607L39.2524 2.35406L39.3506 2.52152L39.4425 2.68899L39.528 2.86278L39.6072 3.03973L39.6801 3.21984L39.7466 3.40311L39.8036 3.58954L39.8543 3.78229L39.8987 3.97504L39.9335 4.17094L39.962 4.36685L39.9842 4.56908L39.9969 4.77131L40 4.9767V19.9068H0.0855713V4.9767L0.0887374 4.77131L0.101411 4.56908L0.120417 4.36685L0.148927 4.17094L0.186939 3.97504L0.231288 3.78229L0.281974 3.58954L0.338997 3.40311L0.405519 3.21984L0.478377 3.03973L0.557573 2.86278L0.643105 2.68899L0.734974 2.52152L0.833176 2.35406L0.937714 2.19607L1.04858 2.03807L1.16263 1.8864L1.28617 1.73789L1.41289 1.5957L1.54593 1.45667L1.68532 1.32712L1.82787 1.19756L1.97676 1.07749L2.12881 0.960579L2.28404 0.849987L2.44559 0.745712L2.61032 0.647759L2.78138 0.556124L2.95561 0.470811L3.13301 0.391815L3.31358 0.319139L3.4973 0.252783L3.68421 0.195907L3.87428 0.145351L4.06751 0.101114L4.26392 0.0663557L4.46349 0.0379161L4.66623 0.0157976L4.86897 0.00315807L5.07488 0H35.0107L35.2166 0.00315807L35.4194 0.0157976Z" fill="#9CF6F6"/>
<path d="M39.9113 35.2287L39.8986 35.4309L39.8765 35.6331L39.848 35.829L39.8131 36.0249L39.7688 36.2177L39.7181 36.4104L39.6611 36.5969L39.5945 36.7801L39.5217 36.9603L39.4425 37.1372L39.3569 37.311L39.2651 37.4785L39.1669 37.6459L39.0623 37.8071L38.9515 37.9619L38.8342 38.1136L38.7139 38.2621L38.5872 38.4043L38.4541 38.5433L38.3147 38.676L38.1722 38.8024L38.0233 38.9225L37.8712 39.0394L37.716 39.15L37.5544 39.2543L37.3866 39.3522L37.2187 39.4439L37.0444 39.5292L36.867 39.6082L36.6865 39.6808L36.5027 39.7472L36.3158 39.8041L36.1226 39.8546L35.9294 39.8989L35.733 39.9336L35.5365 39.9621L35.3338 39.9842L35.1311 39.9968L34.9252 40H19.9572V20.0932H39.9145V35.0233L39.9113 35.2287ZM4.98931 40L4.7834 39.9968L4.58066 39.9842L4.37792 39.9621L4.18152 39.9336L3.98511 39.8989L3.79188 39.8546L3.59864 39.8041L3.41174 39.7472L3.228 39.6808L3.04744 39.6082L2.87004 39.5292L2.69581 39.4439L2.52792 39.3522L2.36002 39.2543L2.19846 39.15L2.04324 39.0394L1.89119 38.9225L1.7423 38.8024L1.59975 38.676L1.46036 38.5433L1.32732 38.4043L1.2006 38.2621L1.08023 38.1136L0.963014 37.9619L0.852143 37.8071L0.747605 37.6459L0.649403 37.4785L0.557534 37.311L0.472006 37.1372L0.392811 36.9603L0.319948 36.7801L0.253426 36.5969L0.196403 36.4104L0.145722 36.2177L0.101372 36.0249L0.0665262 35.829L0.0380122 35.6331L0.01584 35.4309L0.00316608 35.2287L0 35.0233V20.0932H19.9572V40H4.98931Z" fill="#F3C98B"/>
<path d="M9.24373 10.7402L9.50033 10.9361L9.73791 11.1984L9.95649 11.5239L10.1497 11.903L10.3145 12.3359L10.4507 12.8131L10.5552 13.3281L10.6217 13.8779L10.6534 14.453L10.6407 15.0281L10.5869 15.5779L10.4982 16.0961L10.3746 16.5764L10.2226 17.0124L10.0389 17.3979L9.82978 17.7297L9.82344 17.7392L12.9849 20.1691L12.364 20.9717L8.9713 18.3648L8.93012 18.3712L8.84142 18.3648L8.8034 18.3712V18.3648L8.57849 18.3522L8.19518 18.2764L7.78654 18.1436L7.36205 17.9541L6.92806 17.7139L6.48773 17.4232L6.05374 17.082L5.62609 16.6965L5.22694 16.2794L4.87215 15.8559L4.56804 15.4262L4.31461 14.9996L4.11504 14.5825L3.96932 14.1781L3.88062 13.7989L3.85211 13.445L3.88696 13.129L3.98516 12.851L4.15305 12.6203L8.78757 17.1136L8.69253 10.5854L8.97447 10.6233L9.24373 10.7402Z" fill="#CD7F84"/>
<path d="M36.3221 13.4671L36.2936 13.821L36.2049 14.2002L36.0592 14.6046L35.8597 15.0217L35.6062 15.4483L35.3021 15.878L34.9505 16.3015L34.5513 16.7186L34.1205 17.104L33.6865 17.4453L33.2462 17.736L32.8122 17.9762L32.3877 18.1657L31.9822 18.2985L31.5958 18.3743L31.3709 18.3869V18.3932L31.3328 18.3869L31.2441 18.3932L31.203 18.3869L27.8102 20.9938L27.1893 20.188L30.3508 17.7581L30.3445 17.7518L30.1354 17.42L29.9548 17.0345L29.7996 16.5985L29.6761 16.1182L29.5874 15.6L29.5367 15.0502L29.524 14.4719L29.5525 13.9L29.619 13.3502L29.7236 12.8351L29.8598 12.358L30.0245 11.9251L30.2178 11.5459L30.4363 11.2205L30.6739 10.9582L30.9305 10.7623L31.1998 10.6454L31.4817 10.6075L31.3899 17.1356L36.0212 12.6424L36.1891 12.8731L36.2873 13.1511L36.3221 13.4671Z" fill="#CD7F84"/>
<path d="M14.2647 28.176L14.3502 27.7842L14.4928 27.3924L14.6955 27.0101L14.9521 26.6435L15.2657 26.3023L15.6237 26.0021L15.9975 25.7588L16.3903 25.5724L16.7863 25.446L17.1854 25.3764L17.3565 25.3733L14.2552 28.3467L14.2647 28.176Z" fill="#CD7F84"/>
<path d="M24.012 25.5849L24.3827 25.7461L24.7375 25.9609L25.0638 26.2327L25.3457 26.5455L25.577 26.8899L25.7512 27.2533L25.8716 27.6356L25.9413 28.0243L25.9508 28.4193L22.8368 25.4301L23.2328 25.4269L23.6256 25.4775L24.012 25.5849Z" fill="#CD7F84"/>
<path d="M27.8989 19.9068C27.8989 23.4995 24.3795 26.416 20.0428 26.416C15.706 26.416 12.1834 23.4995 12.1834 19.9068C12.1834 16.3141 15.706 13.4008 20.0428 13.4008C24.3795 13.4008 27.8989 16.3141 27.8989 19.9068Z" fill="#CD7F84"/>
<path d="M25.7987 13.8937C25.7987 15.224 24.5727 16.3015 23.0617 16.3015C21.5538 16.3015 20.3279 15.224 20.3279 13.8937C20.3279 12.5666 21.5538 11.4891 23.0617 11.4891C24.5727 11.4891 25.7987 12.5666 25.7987 13.8937Z" fill="white"/>
<path d="M24.5854 13.9158C24.5854 14.5857 23.9391 15.1292 23.1409 15.1292C22.3426 15.1292 21.6932 14.5857 21.6932 13.9158C21.6932 13.2491 22.3426 12.7056 23.1409 12.7056C23.9391 12.7056 24.5854 13.2491 24.5854 13.9158Z" fill="black"/>
<path d="M19.2064 13.8937C19.2064 15.224 17.9805 16.3015 16.4726 16.3015C14.9647 16.3015 13.7388 15.224 13.7388 13.8937C13.7388 12.5666 14.9647 11.4891 16.4726 11.4891C17.9805 11.4891 19.2064 12.5666 19.2064 13.8937Z" fill="white"/>
<path d="M17.9298 13.8683C17.9298 14.5382 17.2804 15.0817 16.4821 15.0817C15.687 15.0817 15.0376 14.5382 15.0376 13.8683C15.0376 13.2016 15.687 12.6581 16.4821 12.6581C17.2804 12.6581 17.9298 13.2016 17.9298 13.8683Z" fill="black"/>
<path d="M22.8209 21.4519L22.4598 21.6415L22.0797 21.8027L21.6837 21.9417L21.2687 22.0491L20.8442 22.1281L20.407 22.1787L19.9572 22.1945L19.5074 22.1787L19.0702 22.1281L18.6457 22.0491L18.2308 21.9417L17.8348 21.8027L17.4546 21.6415L17.0935 21.4519L16.7514 21.237L16.4821 21.0411H23.4323L23.163 21.237L22.8209 21.4519Z" fill="black"/>
</svg>
